# xmcd
#
# Track frame offsets:
#	150
#	16738
#	34144
#	53744
#	73073
#	89010
#	105160
#	126736
#	147859
#	164559
#	181841
#	200718
#	222770
#	244661
#	263177
#	285741
#	306465
#	326625
#
# Disc length: 4612 seconds
#
# Revision: 1
# Processed by: cddbd v1.5.2PL0 Copyright (c) Steve Scherf et al.
# Submitted via: dBpowerAMP V4.0
#
DISCID=13120212
DTITLE=WHITNEY HOUSTON - I LOOK TO YOU DISK2
DYEAR=1900
DGENRE=
TTITLE0=WACTHU LOOKINAT
TTITLE1=TELL ME NO IT FANTANA
TTITLE2=LOVE THAT MAN
TTITLE3=THINGS YOU SAY
TTITLE4=MY LOVE IS BOLLY BVOUN
TTITLE5=ONE OF THOSE DAYSON MY OWN
TTITLE6=ON MY OWN
TTITLE7=DEAR JOHN LETTER
TTITLE8=UNASHAMED
TTITLE9=YOU LIGHT UP MY LIFE
TTITLE10=WACTHU LOOKIN' AT (P. DIDDY REMIX)
TTITLE11=I HAVE NOTHING
TTITLE12=IT'S NOT RIGHT BUT IT'S OK
TTITLE13=FAVING ALL MY LOVE FOR YOU
TTITLE14=GREATEST LOVE OF ME
TTITLE15=I WILL ALWAYS LOVE YOU
TTITLE16=MY LOVE IS YOU LOVE
TTITLE17=WHEN YOU BELIEVE
EXTD=Whitney Houston - I look to you disk2
EXTT0=
EXTT1=
EXTT2=
EXTT3=
EXTT4=
EXTT5=
EXTT6=
EXTT7=
EXTT8=
EXTT9=
EXTT10=
EXTT11=
EXTT12=
EXTT13=
EXTT14=
EXTT15=
EXTT16=
EXTT17=
PLAYORDER=
